<svg width="12" height="13" viewBox="0 0 12 13" fill="none" xmlns="http://www.w3.org/2000/svg">
<path d="M1.95 6.9126C1.95 6.0576 2.645 5.3626 3.5 5.3626H5.5V4.4126H3.5C2.12 4.4126 1 5.5326 1 6.9126C1 8.2926 2.12 9.4126 3.5 9.4126H5.5V8.4626H3.5C2.645 8.4626 1.95 7.7676 1.95 6.9126ZM4 7.4126H8V6.4126H4V7.4126ZM8.5 4.4126H6.5V5.3626H8.5C9.355 5.3626 10.05 6.0576 10.05 6.9126C10.05 7.7676 9.355 8.4626 8.5 8.4626H6.5V9.4126H8.5C9.88 9.4126 11 8.2926 11 6.9126C11 5.5326 9.88 4.4126 8.5 4.4126Z" fill="#2D9CDB"/>
</svg>
