<svg xmlns="http://www.w3.org/2000/svg" viewBox="0 0 544.46 223.08"><defs><style>.cls-1{fill:#545454;}.cls-2{fill:#0fa958;}.cls-3{fill:#ffc700;}.cls-4{fill:#f24e1e;}</style></defs><title>Logo_1</title><g id="Camada_2" data-name="Camada 2"><g id="Camada_1-2" data-name="Camada 1"><path class="cls-1" d="M6,200.32c5.14,0,8.16,3.77,8.16,8.38s-3,8.42-8.16,8.42H0v-16.8Zm0,15c3.84,0,6.22-2.81,6.22-6.58s-2.38-6.55-6.22-6.55H2V215.3Z"/><path class="cls-1" d="M16.42,211.32c0-8,12.19-8,12.19,0S16.42,219.36,16.42,211.32Zm10.32,0a4.22,4.22,0,1,0-8.43,0A4.22,4.22,0,1,0,26.74,211.32Z"/><path class="cls-1" d="M40.44,209.08A3.64,3.64,0,0,0,37,207a4.36,4.36,0,0,0-.1,8.71,3.82,3.82,0,0,0,3.68-2.42h1.82a5.48,5.48,0,0,1-5.52,4.08,6,6,0,1,1,0-12,5.38,5.38,0,0,1,5.35,3.81Z"/><path class="cls-1" d="M55.15,205.56V214c0,1.7.17,1.94,1.37,1.82l0,1.3c-1.8.31-3.24.19-3.12-1.83-.88,1.61-2.37,2-4.12,2-3.1,0-4.35-2.16-4.35-5v-6.74h1.9v6.74c0,2.11,1.08,3.48,3,3.48a3.27,3.27,0,0,0,3.43-3.5v-6.72Z"/><path class="cls-1" d="M75.24,217.12v-6.88c0-1.85-.67-3.36-2.62-3.36a3.35,3.35,0,0,0-3.4,3.5v6.74H67.34v-6.79c0-1.94-.67-3.45-2.68-3.45s-3.24,1.41-3.24,3.52v6.72H59.54v-8.37c0-1.54-.12-2-1.34-1.87l0-1.37c1.64-.27,3.08-.41,3.08,1.87a4.07,4.07,0,0,1,3.91-2.07,3.33,3.33,0,0,1,3.58,2.5,4.54,4.54,0,0,1,4.41-2.5c3.1,0,4,2.26,4,4.93v6.88Z"/><path class="cls-1" d="M91,211.53h-9.2c-.12,2.67,2,4.3,4.61,4.3a10.09,10.09,0,0,0,3.91-.84l.29,1.41a10,10,0,0,1-4.24,1c-3.85,0-6.56-2.43-6.44-6.36a5.67,5.67,0,0,1,5.93-5.74C89.81,205.31,91.66,207.72,91,211.53Zm-9.12-1.44h7.53c.12-2.18-1.48-3.31-3.55-3.31A3.76,3.76,0,0,0,81.89,210.09Z"/><path class="cls-1" d="M102.94,217.12v-6.86a3.13,3.13,0,0,0-3.24-3.38,3.28,3.28,0,0,0-3.46,3.31v6.93H94.37v-8.25c0-1.56-.12-2-1.35-1.85l0-1.49c1.34-.19,3.12-.48,3.12,1.75a4.42,4.42,0,0,1,4.08-2c3,0,4.63,2.12,4.63,4.95v6.86Z"/><path class="cls-1" d="M111.21,205.6h4.25V207h-4.25v5.67c0,3,1.83,3.79,4.61,2.76l.22,1.51c-4,1.27-6.7.14-6.7-4.23V207l-2.47-.12V205.6h2.59l.19-3.6h1.56Z"/><path class="cls-1" d="M121.46,217.32c-2.13,0-4-1.25-4.08-3.58-.07-2.64,2-4,4.42-4a8.44,8.44,0,0,1,4,1v-1.41c0-1.95-2.06-2.48-3.65-2.48a7,7,0,0,0-3.52.84l-.32-1.48a9.24,9.24,0,0,1,4.13-.87c2.62,0,5.14,1,5.07,4v4.83c0,1.27-.07,2,1.34,1.82l0,1.23c-1.92.31-2.83,0-2.83-2.16C125.18,216.64,123.21,217.32,121.46,217.32Zm4.3-5.21a7.86,7.86,0,0,0-3.65-.94c-1.54,0-3,.84-2.88,2.5.07,1.46,1.27,2,2.57,2,1.51,0,3.58-.77,4-2.5Z"/><path class="cls-1" d="M136.17,217.29a5.85,5.85,0,0,1-5.61-6c0-7.13,10-8,11.54-2.21h-1.85c-1.51-3.5-7.8-2.66-7.8,2.21s6.41,5.81,7.9,2h1.87a5.38,5.38,0,0,1-4.65,4l-.29,1.13a1.93,1.93,0,0,1,1.94,2.57c-.65,1.92-3.5,1.95-5,.84l.1-1.15c.84.77,3,1.17,3.4,0s-1.1-1.75-2-1.63Z"/><path class="cls-1" d="M148.17,217.32c-2.13,0-4.08-1.25-4.15-3.58-.07-2.64,2.09-4,4.49-4a8.09,8.09,0,0,1,3.89,1v-1.41c0-1.95-1.92-2.48-3.55-2.48a7.31,7.31,0,0,0-3.6.84l-.32-1.44a9.69,9.69,0,0,1,4.2-.91c2.64,0,5.09,1,5.09,4l0,4.83c0,1.27-.07,2,1.34,1.82l0,1.23c-1.92.31-2.84,0-2.84-2.16A5,5,0,0,1,148.17,217.32Zm-2.4-15.27a2.45,2.45,0,0,1,3.82-1.22c.89.6,1.68.69,2.26-.44.38.2.62.34,1,.51a2.38,2.38,0,0,1-3.67,1.27c-1-.6-1.78-.74-2.43.39C146.45,202.39,146.06,202.22,145.77,202.05Zm6.61,10.06a7.51,7.51,0,0,0-3.56-.94c-1.53,0-3,.84-2.95,2.5.07,1.46,1.34,2,2.64,2,1.61,0,3.48-.77,3.87-2.5Z"/><path class="cls-1" d="M157.27,211.32c0-8,12.19-8,12.19,0S157.27,219.36,157.27,211.32Zm10.32,0a4.21,4.21,0,1,0-8.42,0A4.21,4.21,0,1,0,167.59,211.32Z"/><path class="cls-1" d="M187.34,214.65a4.44,4.44,0,0,1-4.17,2.69c-3.46,0-5.33-2.78-5.33-6,0-3.72,2.59-6,5.57-5.93a6.47,6.47,0,0,1,3.62,1.15v-7h1.87v13.75c0,1.56-.29,2.69,1.37,2.49l0,1.37c-1.87.31-2.95,0-2.95-2Zm-.26-6.38a5.82,5.82,0,0,0-3.51-1.23c-2.11,0-3.84,1.52-3.84,4.28,0,2.3,1.2,4.34,3.7,4.34a3.69,3.69,0,0,0,3.65-3.84Z"/><path class="cls-1" d="M203.18,211.53H194c-.12,2.67,2,4.3,4.61,4.3a10.09,10.09,0,0,0,3.91-.84l.29,1.41a10,10,0,0,1-4.25,1c-3.84,0-6.55-2.43-6.43-6.36a5.67,5.67,0,0,1,5.93-5.74C202,205.31,203.83,207.72,203.18,211.53Zm-9.12-1.44h7.54c.12-2.18-1.49-3.31-3.55-3.31A3.76,3.76,0,0,0,194.06,210.09Z"/><path class="cls-1" d="M215.59,217.32c-2.14,0-4-1.25-4.08-3.58-.07-2.64,2-4,4.41-4a8.48,8.48,0,0,1,4,1v-1.41c0-1.95-2.07-2.48-3.65-2.48a7.06,7.06,0,0,0-3.53.84l-.31-1.48a9.21,9.21,0,0,1,4.13-.87c2.62,0,5.13,1,5.06,4v4.83c0,1.27-.07,2,1.35,1.82l0,1.23c-1.92.31-2.83,0-2.83-2.16C219.31,216.64,217.34,217.32,215.59,217.32Zm4.29-5.21a7.83,7.83,0,0,0-3.64-.94c-1.54,0-3,.84-2.88,2.5.07,1.46,1.27,2,2.56,2,1.52,0,3.58-.77,4-2.5Z"/><path class="cls-1" d="M234.36,209.08a3.65,3.65,0,0,0-3.48-2.13,4.36,4.36,0,0,0-.1,8.71,3.8,3.8,0,0,0,3.67-2.42h1.83a5.48,5.48,0,0,1-5.52,4.08,6,6,0,1,1,0-12,5.38,5.38,0,0,1,5.36,3.81Z"/><path class="cls-1" d="M249.33,211.53h-9.19c-.12,2.67,2,4.3,4.61,4.3a10.09,10.09,0,0,0,3.91-.84l.29,1.41a10,10,0,0,1-4.25,1c-3.84,0-6.55-2.43-6.43-6.36a5.67,5.67,0,0,1,5.93-5.74C248.13,205.31,250,207.72,249.33,211.53Zm-9.12-1.44h7.54c.12-2.18-1.49-3.31-3.55-3.31A3.76,3.76,0,0,0,240.21,210.09Z"/><path class="cls-1" d="M253.27,213.86c.12,1.46,1.75,2,3.31,2s3.19-.67,3.26-2.09-1.1-1.61-3.24-1.92-4.77-.74-4.84-3.14,2.4-3.44,4.8-3.44,4.87,1.08,4.8,3.32h-1.8c0-1.25-1.49-1.83-3-1.83s-3.1.55-3,1.9c0,1.13,1.11,1.42,3.24,1.73,2.43.31,5,.65,4.9,3.38,0,2.38-2.4,3.53-5.09,3.6-2.52,0-4.94-.91-5.14-3.55Z"/><path class="cls-1" d="M265.48,213.86c.12,1.46,1.76,2,3.32,2s3.19-.67,3.26-2.09-1.1-1.61-3.24-1.92-4.78-.74-4.85-3.14,2.4-3.44,4.8-3.44,4.87,1.08,4.8,3.32h-1.8c0-1.25-1.49-1.83-3-1.83s-3.09.55-3,1.9c0,1.13,1.1,1.42,3.24,1.73,2.42.31,5,.65,4.89,3.38,0,2.38-2.4,3.53-5.08,3.6-2.52,0-4.95-.91-5.14-3.55Z"/><path class="cls-1" d="M278.92,201.74a1.19,1.19,0,1,1-2.37,0A1.19,1.19,0,1,1,278.92,201.74Zm-.26,15.38h-1.87V205.65h1.87Z"/><path class="cls-1" d="M282.28,199.58h1.87v6.74a6.85,6.85,0,0,1,3.63-1c3,0,5.54,2.23,5.54,6.07,0,4.37-2.95,6-6.31,6a12.55,12.55,0,0,1-4.73-1Zm1.83,15.65a8.47,8.47,0,0,0,3,.55c2.33-.05,4.32-1.27,4.32-4.37s-1.82-4.46-3.94-4.49a5.75,5.75,0,0,0-3.4,1.13Z"/><path class="cls-1" d="M298.44,201.74a1.19,1.19,0,1,1-2.38,0A1.19,1.19,0,1,1,298.44,201.74Zm-.27,15.38H296.3V205.65h1.87Z"/><path class="cls-1" d="M303.64,199.53V213c0,2.25.48,3.05,2.91,2.73l.07,1.49c-3.53.58-4.87-.65-4.87-4.22V199.53Z"/><path class="cls-1" d="M310.65,201.74a1.19,1.19,0,1,1-2.38,0A1.19,1.19,0,1,1,310.65,201.74Zm-.26,15.38h-1.88V205.65h1.88Z"/><path class="cls-1" d="M322.84,214.65a4.44,4.44,0,0,1-4.17,2.69c-3.46,0-5.33-2.78-5.33-6,0-3.72,2.59-6,5.57-5.93a6.47,6.47,0,0,1,3.62,1.15v-7h1.87v13.75c0,1.56-.28,2.69,1.37,2.49l0,1.37c-1.87.31-3,0-3-2Zm-.26-6.38a5.82,5.82,0,0,0-3.51-1.23c-2.11,0-3.84,1.52-3.84,4.28,0,2.3,1.2,4.34,3.7,4.34a3.69,3.69,0,0,0,3.65-3.84Z"/><path class="cls-1" d="M331.72,217.32c-2.13,0-4-1.25-4.08-3.58-.07-2.64,2-4,4.42-4a8.44,8.44,0,0,1,4,1v-1.41c0-1.95-2.06-2.48-3.64-2.48a7,7,0,0,0-3.53.84l-.32-1.48a9.24,9.24,0,0,1,4.13-.87c2.62,0,5.14,1,5.07,4v4.83c0,1.27-.07,2,1.34,1.82l0,1.23c-1.92.31-2.84,0-2.84-2.16A5,5,0,0,1,331.72,217.32Zm4.3-5.21a7.86,7.86,0,0,0-3.65-.94c-1.54,0-2.95.84-2.88,2.5.07,1.46,1.27,2,2.57,2,1.51,0,3.58-.77,4-2.5Z"/><path class="cls-1" d="M350.32,214.65a4.43,4.43,0,0,1-4.17,2.69c-3.46,0-5.33-2.78-5.33-6,0-3.72,2.59-6,5.57-5.93a6.47,6.47,0,0,1,3.62,1.15v-7h1.87v13.75c0,1.56-.28,2.69,1.37,2.49l0,1.37c-1.88.31-3,0-3-2Zm-.26-6.38a5.82,5.82,0,0,0-3.51-1.23c-2.11,0-3.84,1.52-3.84,4.28,0,2.3,1.21,4.34,3.7,4.34a3.69,3.69,0,0,0,3.65-3.84Z"/><path class="cls-1" d="M366.16,211.53H357c-.12,2.67,2,4.3,4.61,4.3a10.09,10.09,0,0,0,3.91-.84l.29,1.41a10,10,0,0,1-4.25,1c-3.84,0-6.55-2.43-6.43-6.36a5.67,5.67,0,0,1,5.93-5.74C365,205.31,366.81,207.72,366.16,211.53ZM357,210.09h7.54c.12-2.18-1.49-3.31-3.55-3.31A3.76,3.76,0,0,0,357,210.09Z"/><path class="cls-1" d="M381.52,205.24c3.39,0,5.23,2.72,5.23,6,0,5.16-5.06,7.58-9.19,4.8v7h-1.87V209.42c0-1.49.17-2.69-1.37-2.5l0-1.39c1.82-.31,3.07.12,3,1.95A4.51,4.51,0,0,1,381.52,205.24Zm-4,9.12c3.15,2.45,7.32,1.16,7.32-3.09,0-2.31-1.08-4.32-3.67-4.32a3.76,3.76,0,0,0-3.65,3.84Z"/><path class="cls-1" d="M392.9,217.32c-2.14,0-4-1.25-4.08-3.58-.08-2.64,2-4,4.41-4a8.48,8.48,0,0,1,4,1v-1.41c0-1.95-2.07-2.48-3.65-2.48a7,7,0,0,0-3.53.84l-.31-1.48a9.21,9.21,0,0,1,4.13-.87c2.61,0,5.13,1,5.06,4v4.83c0,1.27-.07,2,1.35,1.82l0,1.23c-1.92.31-2.83,0-2.83-2.16C396.62,216.64,394.65,217.32,392.9,217.32Zm4.29-5.21a7.83,7.83,0,0,0-3.65-.94c-1.53,0-3,.84-2.87,2.5.07,1.46,1.27,2,2.56,2,1.52,0,3.58-.77,4-2.5Z"/><path class="cls-1" d="M408.33,205.17A4.47,4.47,0,0,1,411,206l-.45,1.58a4.49,4.49,0,0,0-2.45-.77,3.11,3.11,0,0,0-3.19,3.07v7.2H403.1v-8.85c0-1.06,0-1.71-1.39-1.59l0-1.24c1.8-.32,3.07-.13,3.15,1.65A3.49,3.49,0,0,1,408.33,205.17Z"/><path class="cls-1" d="M416.18,217.32c-2.14,0-4-1.25-4.08-3.58-.08-2.64,2-4,4.41-4a8.48,8.48,0,0,1,4,1v-1.41c0-1.95-2.07-2.48-3.65-2.48a7,7,0,0,0-3.53.84l-.31-1.48a9.21,9.21,0,0,1,4.13-.87c2.61,0,5.13,1,5.06,4v4.83c0,1.27-.07,2,1.35,1.82l0,1.23c-1.92.31-2.83,0-2.83-2.16C419.9,216.64,417.93,217.32,416.18,217.32Zm4.29-5.21a7.83,7.83,0,0,0-3.64-.94c-1.54,0-3,.84-2.88,2.5.07,1.46,1.27,2,2.56,2,1.52,0,3.58-.77,4-2.5Z"/><path class="cls-1" d="M434.42,201.74a1.19,1.19,0,1,1-2.38,0A1.19,1.19,0,1,1,434.42,201.74Zm-.27,15.38h-1.87V205.65h1.87Z"/><path class="cls-1" d="M446.8,217.12v-6.86a3.12,3.12,0,0,0-3.24-3.38,3.28,3.28,0,0,0-3.46,3.31v6.93h-1.87v-8.25c0-1.56-.12-2-1.34-1.85l0-1.49c1.35-.19,3.12-.48,3.12,1.75a4.43,4.43,0,0,1,4.09-2c3,0,4.63,2.12,4.63,4.95v6.86Z"/><path class="cls-1" d="M455.08,205.6h4.25V207h-4.25v5.67c0,3,1.83,3.79,4.61,2.76l.22,1.51c-4,1.27-6.7.14-6.7-4.23V207l-2.47-.12V205.6h2.59l.19-3.6h1.56Z"/><path class="cls-1" d="M472.43,211.53h-9.19c-.12,2.67,2,4.3,4.61,4.3a10.09,10.09,0,0,0,3.91-.84l.29,1.41a10,10,0,0,1-4.25,1c-3.84,0-6.55-2.43-6.43-6.36a5.67,5.67,0,0,1,5.93-5.74C471.23,205.31,473.08,207.72,472.43,211.53Zm-9.12-1.44h7.54c.12-2.18-1.49-3.31-3.55-3.31A3.76,3.76,0,0,0,463.31,210.09Z"/><path class="cls-1" d="M481,205.17a4.47,4.47,0,0,1,2.71.87l-.45,1.58a4.49,4.49,0,0,0-2.45-.77,3.11,3.11,0,0,0-3.19,3.07v7.2h-1.85v-8.85c0-1.06,0-1.71-1.39-1.59l0-1.24c1.8-.32,3.07-.13,3.15,1.65A3.49,3.49,0,0,1,481,205.17Z"/><path class="cls-1" d="M487,207.09h-2.47v-1.44h2.5v-1.94c0-4.32,3.26-5,6.74-3.68l-.26,1.4c-2.31-1-4.63-.89-4.63,2.16v2.06h4.2v1.44h-4.2v10H487Z"/><path class="cls-1" d="M498.38,217.32c-2.14,0-4-1.25-4.08-3.58-.08-2.64,2-4,4.41-4a8.51,8.51,0,0,1,4,1v-1.41c0-1.95-2.07-2.48-3.65-2.48a7,7,0,0,0-3.53.84l-.31-1.48a9.21,9.21,0,0,1,4.13-.87c2.61,0,5.13,1,5.06,4v4.83c0,1.27-.07,2,1.35,1.82l0,1.23c-1.92.31-2.83,0-2.83-2.16C502.1,216.64,500.13,217.32,498.38,217.32Zm4.29-5.21a7.83,7.83,0,0,0-3.65-.94c-1.53,0-2.95.84-2.88,2.5.08,1.46,1.28,2,2.57,2,1.51,0,3.58-.77,4-2.5Z"/><path class="cls-1" d="M517.14,209.08a3.63,3.63,0,0,0-3.48-2.13,4.36,4.36,0,0,0-.09,8.71,3.81,3.81,0,0,0,3.67-2.42h1.82a5.47,5.47,0,0,1-5.52,4.08,6,6,0,1,1,.05-12,5.38,5.38,0,0,1,5.35,3.81Z"/><path class="cls-1" d="M532.12,211.53h-9.19c-.12,2.67,2,4.3,4.61,4.3a10.12,10.12,0,0,0,3.91-.84l.29,1.41a10,10,0,0,1-4.25,1c-3.84,0-6.55-2.43-6.43-6.36a5.67,5.67,0,0,1,5.92-5.74C530.92,205.31,532.77,207.72,532.12,211.53ZM523,210.09h7.54c.12-2.18-1.49-3.31-3.56-3.31A3.76,3.76,0,0,0,523,210.09Z"/><path class="cls-1" d="M536.05,213.86c.12,1.46,1.76,2,3.32,2s3.19-.67,3.26-2.09-1.1-1.61-3.24-1.92-4.78-.74-4.85-3.14,2.4-3.44,4.8-3.44,4.88,1.08,4.8,3.32h-1.8c0-1.25-1.48-1.83-3-1.83s-3.09.55-3,1.9c0,1.13,1.1,1.42,3.24,1.73,2.42.31,5,.65,4.9,3.38,0,2.38-2.4,3.53-5.09,3.6-2.52,0-5-.91-5.14-3.55Z"/><path class="cls-2" d="M87,132V33.56A15.21,15.21,0,0,1,98.3,18.89L168.79,0V37.5h-8.08v-27L100.39,26.69a7.13,7.13,0,0,0-5.26,6.87v87.86L115.46,116l2.09,7.8Z"/><path class="cls-3" d="M112.46,157.38V59a15.21,15.21,0,0,1,11.26-14.67l70.49-18.89v37.5h-8.08V36L125.82,52.12A7.1,7.1,0,0,0,120.55,59v87.87l20.33-5.45,2.09,7.81Z"/><path class="cls-4" d="M137.89,182.8V84.4a15.22,15.22,0,0,1,11.25-14.67l70.49-18.89v98.4a15.21,15.21,0,0,1-11.25,14.67ZM211.55,61.38,151.24,77.54A7.12,7.12,0,0,0,146,84.4v87.87l60.31-16.16a7.12,7.12,0,0,0,5.27-6.87Z"/><path class="cls-1" d="M280.88,50c26.8,0,41.22,20.31,41.22,41.7.36,21.51-14.06,42.3-41.22,42.3H249.63V50Zm-.24,67.77c15.5,0,23.55-12.5,23.55-25.95s-8.29-25.6-23.55-25.6h-13.1v51.55Z"/><path class="cls-1" d="M349.38,120.1,342.89,134H324.14v-2.41l38.7-82.43h8.29l38.45,82.43V134H391l-6.61-13.94ZM355.27,105h23.31L366.92,77.2Z"/><path class="cls-1" d="M456.21,119.74V134H414.39v-14.3h11.9V63.86H415.35V49.92h39.9V63.86H444.31v55.88Z"/></g></g></svg>