<svg xmlns="http://www.w3.org/2000/svg" viewBox="0 0 207.92 298.19"><defs><style>.cls-1{fill:#0fa958;}.cls-2{fill:#ffc700;}.cls-3{fill:#f24e1e;}.cls-4{fill:#545454;}</style></defs><title>Logo vertical</title><g id="Camada_2" data-name="Camada 2"><g id="Camada_1-2" data-name="Camada 1"><path class="cls-1" d="M37.66,132V33.56A15.21,15.21,0,0,1,48.92,18.89L119.41,0V37.5h-8.08v-27L51,26.69a7.13,7.13,0,0,0-5.26,6.87v87.86L66.08,116l2.09,7.8Z"/><path class="cls-2" d="M63.09,157.38V59A15.2,15.2,0,0,1,74.34,44.31l70.49-18.89v37.5h-8.08V36L76.44,52.12A7.1,7.1,0,0,0,71.17,59v87.87L91.5,141.4l2.09,7.81Z"/><path class="cls-3" d="M88.51,182.8V84.4A15.21,15.21,0,0,1,99.77,69.73l70.48-18.89v98.4A15.2,15.2,0,0,1,159,163.91ZM162.17,61.38,101.86,77.54a7.12,7.12,0,0,0-5.27,6.86v87.87l60.31-16.16a7.12,7.12,0,0,0,5.27-6.87Z"/><path class="cls-4" d="M31.45,213.65c27,0,41.48,20.44,41.48,42,.37,21.65-14.15,42.57-41.48,42.57H0V213.65Zm-.24,68.22c15.6,0,23.7-12.58,23.7-26.13S46.57,230,31.21,230H18v51.89Z"/><path class="cls-4" d="M100.39,284.16l-6.53,14H75v-2.42l39-83h8.34l38.71,83v2.42H142.24l-6.65-14Zm5.93-15.24h23.46L118.05,241Z"/><path class="cls-4" d="M207.92,283.8v14.39H165.83V283.8h12V227.56h-11v-14H207v14h-11V283.8Z"/></g></g></svg>